PathFileType	4	(X/Y/Z)	 1.9Hzhigh3min.trc
DataRate	CameraRate	NumFrames	NumMarkers	Units	OrigDataRate	OrigDataStartFrame	OrigNumFrames
200	200	8	43	m	200	251	1000
Frame#	Time	C7			LSH			RSH			MAN			RASI			LASI			HIPR			HIPL			RPSI			LPSI			COX			RTHI1			RTHI2			RTHI3			RTHI4			RLKN			RMKN			RSHA1			RSHA2			RSHA3			RSHA4			RLMAL			RMMAL			RHEEL			RMET5			RMET1			RTOE			LTHI1			LTHI2			LTHI3			LTHI4			LLKN			LMKN			LSHA1			LSHA2			LSHA3			LSHA4			LLMAL			LMMAL			LHEEL			LMET5			LMET1			LTOE			
		X1	Y1	Z1	X2	Y2	Z2	X3	Y3	Z3	X4	Y4	Z4	X5	Y5	Z5	X6	Y6	Z6	X7	Y7	Z7	X8	Y8	Z8	X9	Y9	Z9	X10	Y10	Z10	X11	Y11	Z11	X12	Y12	Z12	X13	Y13	Z13	X14	Y14	Z14	X15	Y15	Z15	X16	Y16	Z16	X17	Y17	Z17	X18	Y18	Z18	X19	Y19	Z19	X20	Y20	Z20	X21	Y21	Z21	X22	Y22	Z22	X23	Y23	Z23	X24	Y24	Z24	X25	Y25	Z25	X26	Y26	Z26	X27	Y27	Z27	X28	Y28	Z28	X29	Y29	Z29	X30	Y30	Z30	X31	Y31	Z31	X32	Y32	Z32	X33	Y33	Z33	X34	Y34	Z34	X35	Y35	Z35	X36	Y36	Z36	X37	Y37	Z37	X38	Y38	Z38	X39	Y39	Z39	X40	Y40	Z40	X41	Y41	Z41	X42	Y42	Z42	X43	Y43	Z43	
251	1.2550	-0.331822	1.718202	-0.534573	-0.279014	1.702480	-0.732878	-0.241992	1.686441	-0.340931	-0.196455	1.654648	-0.542600	-0.237591	1.188853	-0.422535	-0.264041	1.196252	-0.678963	-0.290486	1.283814	-0.376529	-0.304394	1.274160	-0.705958	-0.414494	1.242073	-0.477616	-0.421675	1.244210	-0.578060	-0.422342	1.240078	-0.531436	-0.324147	0.976619	-0.342092	-0.325920	0.915292	-0.341164	-0.253525	0.921264	-0.339314	-0.259156	0.980738	-0.342048	-0.313912	0.660538	-0.346787	-0.312735	0.650398	-0.481225	-0.397084	0.495149	-0.342013	-0.398312	0.453552	-0.351625	-0.342445	0.450663	-0.328187	-0.343599	0.490548	-0.323637	-0.373918	0.254652	-0.342293	-0.337245	0.260242	-0.430616	-0.423891	0.244289	-0.385205	-0.283029	0.144916	-0.329772	-0.233873	0.158601	-0.404981	-0.205210	0.142315	-0.399210	-0.382120	0.982710	-0.720998	-0.370359	0.922446	-0.727113	-0.309730	0.930683	-0.747400	-0.313127	0.991161	-0.744477	-0.348658	0.681193	-0.714737	-0.308531	0.673116	-0.588819	-0.435855	0.474212	-0.701851	-0.445323	0.436439	-0.691969	-0.388746	0.422404	-0.711700	-0.385522	0.465673	-0.720514	-0.437482	0.264380	-0.698896	-0.400552	0.264042	-0.615430	-0.483897	0.251845	-0.644598	-0.345709	0.161406	-0.718898	-0.289569	0.174090	-0.653869	-0.265052	0.157975	-0.659502	
252	1.2600	-0.331554	1.718278	-0.534138	-0.278645	1.702326	-0.732682	-0.241688	1.686055	-0.340443	-0.196446	1.654379	-0.542191	-0.238107	1.188834	-0.422501	-0.264614	1.196248	-0.679036	-0.291586	1.283927	-0.376406	-0.305128	1.274279	-0.705850	-0.415051	1.241870	-0.477529	-0.422214	1.244029	-0.577947	-0.422902	1.239868	-0.531341	-0.324058	0.976561	-0.341871	-0.325766	0.915222	-0.340886	-0.253375	0.921273	-0.339240	-0.259073	0.980748	-0.342071	-0.313517	0.660529	-0.346488	-0.313046	0.650280	-0.480861	-0.396846	0.495308	-0.341131	-0.398270	0.453660	-0.350726	-0.342277	0.450703	-0.327660	-0.343327	0.490586	-0.323111	-0.374165	0.254788	-0.341395	-0.338137	0.260336	-0.430024	-0.424535	0.244330	-0.383936	-0.283131	0.145208	-0.329639	-0.234559	0.158948	-0.405169	-0.205837	0.142725	-0.399614	-0.382351	0.982498	-0.720977	-0.370432	0.922267	-0.727132	-0.309823	0.930684	-0.747407	-0.313390	0.991160	-0.744447	-0.348319	0.681008	-0.714721	-0.308709	0.673025	-0.588497	-0.435795	0.474235	-0.701657	-0.445311	0.436454	-0.691724	-0.388743	0.422361	-0.711469	-0.385473	0.465617	-0.720296	-0.437616	0.264347	-0.698514	-0.400649	0.264103	-0.615040	-0.484051	0.252020	-0.644201	-0.346069	0.160961	-0.718187	-0.290025	0.173659	-0.653187	-0.265499	0.157426	-0.658659	
253	1.2650	-0.331294	1.718076	-0.533709	-0.278269	1.701924	-0.732480	-0.241374	1.685455	-0.339962	-0.196459	1.653888	-0.541789	-0.238626	1.188555	-0.422458	-0.265179	1.195963	-0.679095	-0.292625	1.283803	-0.376269	-0.305879	1.274112	-0.705738	-0.415598	1.241446	-0.477428	-0.422732	1.243631	-0.577816	-0.423445	1.239442	-0.531241	-0.323994	0.976241	-0.341638	-0.325628	0.914884	-0.340605	-0.253243	0.921030	-0.339158	-0.259017	0.980498	-0.342063	-0.313104	0.660269	-0.346192	-0.313325	0.649882	-0.480501	-0.396603	0.495216	-0.340223	-0.398238	0.453545	-0.349773	-0.342091	0.450482	-0.327146	-0.343033	0.490366	-0.322592	-0.374430	0.254681	-0.340517	-0.339029	0.260178	-0.429443	-0.425191	0.244109	-0.382727	-0.283217	0.145307	-0.329466	-0.235197	0.159079	-0.405314	-0.206400	0.142989	-0.399944	-0.382616	0.982005	-0.720953	-0.370557	0.921796	-0.727151	-0.309984	0.930361	-0.747472	-0.313688	0.990844	-0.744455	-0.347917	0.680542	-0.714694	-0.308869	0.672591	-0.588193	-0.435718	0.473991	-0.701449	-0.445278	0.436221	-0.691493	-0.388724	0.422068	-0.711262	-0.385417	0.465300	-0.720079	-0.437715	0.264045	-0.698155	-0.400702	0.263882	-0.614684	-0.484158	0.251977	-0.643811	-0.346457	0.160209	-0.717526	-0.290481	0.172891	-0.652564	-0.265992	0.156502	-0.657903	
254	1.2700	-0.331049	1.717593	-0.533292	-0.277878	1.701280	-0.732265	-0.241045	1.684632	-0.339496	-0.196485	1.653161	-0.541391	-0.239157	1.188016	-0.422398	-0.265729	1.195396	-0.679134	-0.293581	1.283429	-0.376121	-0.306636	1.273649	-0.705619	-0.416135	1.240800	-0.477323	-0.423227	1.243015	-0.577681	-0.423971	1.238806	-0.531133	-0.323958	0.975663	-0.341401	-0.325512	0.914286	-0.340331	-0.253132	0.920529	-0.339074	-0.258988	0.979993	-0.342026	-0.312669	0.659757	-0.345908	-0.313556	0.649227	-0.480145	-0.396365	0.494871	-0.339295	-0.398187	0.453213	-0.348792	-0.341879	0.450004	-0.326635	-0.342733	0.489888	-0.322092	-0.374723	0.254335	-0.339658	-0.339938	0.259767	-0.428871	-0.425855	0.243607	-0.381568	-0.283273	0.145247	-0.329238	-0.235781	0.159052	-0.405401	-0.206914	0.143094	-0.400205	-0.382908	0.981225	-0.720925	-0.370722	0.921029	-0.727170	-0.310197	0.929723	-0.747582	-0.314014	0.990212	-0.744491	-0.347459	0.679810	-0.714653	-0.308995	0.671828	-0.587914	-0.435613	0.473487	-0.701228	-0.445222	0.435750	-0.691278	-0.388685	0.421526	-0.711073	-0.385345	0.464721	-0.719859	-0.437770	0.263477	-0.697814	-0.400711	0.263377	-0.614353	-0.484223	0.251729	-0.643447	-0.346879	0.159168	-0.716932	-0.290930	0.171742	-0.651963	-0.266529	0.155191	-0.657235	
255	1.2750	-0.330818	1.716833	-0.532887	-0.277495	1.700387	-0.732046	-0.240700	1.683577	-0.339048	-0.196522	1.652183	-0.541000	-0.239697	1.187224	-0.422324	-0.266259	1.194554	-0.679145	-0.294445	1.282787	-0.375962	-0.307380	1.272884	-0.705494	-0.416665	1.239931	-0.477219	-0.423702	1.242183	-0.577559	-0.424486	1.237951	-0.531025	-0.323950	0.974827	-0.341166	-0.325419	0.913444	-0.340066	-0.253047	0.919777	-0.338991	-0.258988	0.979240	-0.341966	-0.312195	0.658991	-0.345642	-0.313748	0.648336	-0.479793	-0.396119	0.494284	-0.338354	-0.398127	0.452666	-0.347796	-0.341654	0.449274	-0.326125	-0.342410	0.489160	-0.321595	-0.375060	0.253760	-0.338822	-0.340864	0.259118	-0.428314	-0.426535	0.242808	-0.380449	-0.283310	0.144980	-0.328989	-0.236328	0.158901	-0.405436	-0.207381	0.143052	-0.400406	-0.383218	0.980161	-0.720890	-0.370924	0.919976	-0.727189	-0.310451	0.928775	-0.747722	-0.314363	0.989270	-0.744548	-0.346973	0.678814	-0.714600	-0.309062	0.670758	-0.587669	-0.435476	0.472724	-0.700994	-0.445149	0.435038	-0.691084	-0.388623	0.420725	-0.710896	-0.385250	0.463878	-0.719639	-0.437786	0.262661	-0.697495	-0.400669	0.262592	-0.614046	-0.484253	0.251267	-0.643108	-0.347333	0.157848	-0.716384	-0.291412	0.170213	-0.651382	-0.267087	0.153526	-0.656577	
256	1.2800	-0.330599	1.715791	-0.532495	-0.277110	1.699238	-0.731815	-0.240346	1.682298	-0.338618	-0.196565	1.650960	-0.540619	-0.240247	1.186185	-0.422238	-0.266762	1.193426	-0.679125	-0.295209	1.281861	-0.375800	-0.308095	1.271819	-0.705358	-0.417191	1.238838	-0.477112	-0.424162	1.241129	-0.577447	-0.424992	1.236888	-0.530922	-0.323970	0.973741	-0.340939	-0.325350	0.912352	-0.339817	-0.252987	0.918785	-0.338913	-0.259016	0.978239	-0.341891	-0.311676	0.657974	-0.345389	-0.313901	0.647221	-0.479456	-0.395865	0.493469	-0.337355	-0.398070	0.451866	-0.346827	-0.341420	0.448296	-0.325609	-0.342072	0.488175	-0.321116	-0.375459	0.252929	-0.337998	-0.341840	0.258227	-0.427753	-0.427240	0.241711	-0.379352	-0.283313	0.144565	-0.328701	-0.236832	0.158597	-0.405425	-0.207791	0.142860	-0.400530	-0.383540	0.978817	-0.720859	-0.371156	0.918637	-0.727206	-0.310731	0.927530	-0.747879	-0.314720	0.988024	-0.744617	-0.346495	0.677554	-0.714538	-0.309051	0.669392	-0.587462	-0.435308	0.471708	-0.700751	-0.445043	0.434081	-0.690891	-0.388539	0.419659	-0.710729	-0.385133	0.462764	-0.719415	-0.437770	0.261595	-0.697191	-0.400588	0.261537	-0.613742	-0.484255	0.250580	-0.642774	-0.347811	0.156272	-0.715879	-0.291903	0.168398	-0.650843	-0.267674	0.151562	-0.655998	
257	1.2850	-0.330388	1.714484	-0.532116	-0.276723	1.697836	-0.731569	-0.239977	1.680815	-0.338229	-0.196615	1.649492	-0.540248	-0.240812	1.184894	-0.422141	-0.267243	1.192020	-0.679074	-0.295870	1.280642	-0.375650	-0.308769	1.270459	-0.705211	-0.417716	1.237526	-0.477013	-0.424610	1.239850	-0.577353	-0.425489	1.235603	-0.530833	-0.324014	0.972407	-0.340710	-0.325305	0.911021	-0.339584	-0.252950	0.917542	-0.338838	-0.259072	0.976993	-0.341803	-0.311110	0.656703	-0.345150	-0.314015	0.645897	-0.479139	-0.395614	0.492415	-0.336414	-0.397992	0.450827	-0.345879	-0.341186	0.447071	-0.325089	-0.341704	0.486951	-0.320618	-0.375913	0.251844	-0.337183	-0.342859	0.257101	-0.427200	-0.427973	0.240323	-0.378282	-0.283284	0.143966	-0.328390	-0.237293	0.158143	-0.405391	-0.208136	0.142533	-0.400621	-0.383858	0.977197	-0.720822	-0.371409	0.917027	-0.727217	-0.311031	0.925998	-0.748039	-0.315078	0.986492	-0.744686	-0.346053	0.676037	-0.714475	-0.308948	0.667748	-0.587297	-0.435105	0.470442	-0.700503	-0.444892	0.432852	-0.690662	-0.388425	0.418337	-0.710560	-0.384979	0.461404	-0.719204	-0.437734	0.260295	-0.696896	-0.400481	0.260217	-0.613434	-0.484244	0.249662	-0.642455	-0.348308	0.154461	-0.715402	-0.292371	0.166322	-0.650290	-0.268313	0.149350	-0.655484	
258	1.2900	-0.330186	1.712914	-0.531754	-0.276335	1.696185	-0.731309	-0.239601	1.679111	-0.337869	-0.196665	1.647776	-0.539883	-0.241395	1.183348	-0.422029	-0.267695	1.190339	-0.678987	-0.296428	1.279134	-0.375508	-0.309388	1.268805	-0.705051	-0.418239	1.235997	-0.476929	-0.425049	1.238343	-0.577283	-0.425986	1.234101	-0.530760	-0.324081	0.970827	-0.340484	-0.325277	0.909447	-0.339371	-0.252932	0.916056	-0.338771	-0.259147	0.975502	-0.341706	-0.310494	0.655173	-0.344933	-0.314096	0.644365	-0.478848	-0.395331	0.491125	-0.335507	-0.397896	0.449522	-0.345017	-0.340945	0.445598	-0.324572	-0.341319	0.485472	-0.320126	-0.376417	0.250512	-0.336389	-0.343931	0.255739	-0.426655	-0.428722	0.238633	-0.377200	-0.283248	0.143206	-0.328058	-0.237741	0.157533	-0.405317	-0.208451	0.142068	-0.400677	-0.384169	0.975312	-0.720779	-0.371674	0.915152	-0.727223	-0.311341	0.924199	-0.748181	-0.315436	0.984685	-0.744755	-0.345661	0.674264	-0.714415	-0.308743	0.665847	-0.587175	-0.434862	0.468944	-0.700257	-0.444711	0.431383	-0.690429	-0.388282	0.416755	-0.710386	-0.384785	0.459799	-0.718999	-0.437692	0.258768	-0.696601	-0.400373	0.258651	-0.613107	-0.484242	0.248513	-0.642151	-0.348810	0.152452	-0.714948	-0.292862	0.164004	-0.649744	-0.268954	0.146922	-0.655017	
